{"title":"The Hunger Games Catching Fire 2013.TS.XViD - !di0T [P2PDL]","uid":9243236,"size":800008208,"categoryP":"video","categoryS":"movies","magnet":"?xt=urn:btih:0570abe6c4744cf99351857e354fa8370eb02173&amp;dn=The+Hunger+Games+Catching+Fire+2013.TS.XViD+-+%21di0T+%5BP2PDL%5D&amp;tr=udp%3A%2F%2Ftracker.openbittorrent.com%3A80&amp;tr=udp%3A%2F%2Fopen.demonii.com%3A1337&amp;tr=udp%3A%2F%2Ftracker.coppersurfer.tk%3A6969&amp;tr=udp%3A%2F%2Fexodus.desync.com%3A6969","seeders":3,"leechers":0,"uploader":"TeX","files":1,"time":1385320444,"description":"\n\n\n\nGeneral\nComplete name                            : The Hunger Games Catching Fire 2013.TS.XViD - !di0T.avi\nFormat                                   : AVI\nFormat/Info                              : Audio Video Interleave\nFile size                                : 763 MiB\nDuration                                 : 2h 16mn\nOverall bit rate mode                    : Variable\nOverall bit rate                         : 784 Kbps\nWriting application                      : FairUse Wizard - http://fairusewizard.com\nWriting library                          : VirtualDub build 35491/release\n\nVideo\nID                                       : 0\nFormat                                   : MPEG-4 Visual\nFormat profile                           : Advanced Simple@L5\nFormat settings, BVOP                    : 2\nFormat settings, QPel                    : No\nFormat settings, GMC                     : No warppoints\nFormat settings, Matrix                  : Default (H.263)\nMuxing mode                              : Packed bitstream\nCodec ID                                 : XVID\nCodec ID/Hint                            : XviD\nDuration                                 : 2h 16mn\nBit rate                                 : 656 Kbps\nWidth                                    : 624 pixels\nHeight                                   : 272 pixels\nDisplay aspect ratio                     : 2.25:1\nFrame rate                               : 29.970 fps\nColor space                              : YUV\nChroma subsampling                       : 4:2:0\nBit depth                                : 8 bits\nScan type                                : Progressive\nCompression mode                         : Lossy\nBits/(Pixel*Frame)                       : 0.129\nStream size                              : 638 MiB (84%)\nWriting library                          : XviD 62\n\nAudio\nID                                       : 1\nFormat                                   : MPEG Audio\nFormat version                           : Version 1\nFormat profile                           : Layer 3\nCodec ID                                 : 55\nCodec ID/Hint                            : MP3\nDuration                                 : 2h 16mn\nBit rate mode                            : Variable\nBit rate                                 : 114 Kbps\nChannel(s)                               : 1 channel\nSampling rate                            : 44.1 KHz\nCompression mode                         : Lossy\nStream size                              : 111 MiB (15%)\nAlignment                                : Aligned on interleaves\nInterleave, duration                     : 26 ms (0.78 video frame)\nInterleave, preload duration             : 528 ms\n\n\n","torrent":{"xt":"urn:btih:0570abe6c4744cf99351857e354fa8370eb02173","amp;dn":"The+Hunger+Games+Catching+Fire+2013.TS.XViD+-+%21di0T+%5BP2PDL%5D","amp;tr":["udp%3A%2F%2Ftracker.openbittorrent.com%3A80","udp%3A%2F%2Fopen.demonii.com%3A1337","udp%3A%2F%2Ftracker.coppersurfer.tk%3A6969","udp%3A%2F%2Fexodus.desync.com%3A6969"],"infoHash":"0570abe6c4744cf99351857e354fa8370eb02173","infoHashBuffer":{"type":"Buffer","data":[5,112,171,230,196,116,76,249,147,81,133,126,53,79,168,55,14,176,33,115]},"announce":[],"urlList":[]}}